<svg xmlns="http://www.w3.org/2000/svg" width="130" height="33"><path fill="#FFF" d="M21.5 27.4H6.6A2.6 2.6 0 014 24.8V6h20v18.7c0 1.4-1.1 2.6-2.5 2.6M41.8 11.2H32v.9l2.2.7h18.4v-1.6h-7.8V9.4h5.4V7.7h-.8s1-4.5 1-6h-16v.9l2.2.7V10h3.2v-.8h2v2zm-2-3.4V3.5h7.5L47 7.8h-7.2z"/><path fill="#FFF" d="M41.8 11.2H32v.9l2.2.7h18.4v-1.6h-7.8V9.4h5.4V7.7h-.8s1-4.5 1-6h-16v.9l2.2.7V10h3.2v-.8h2v2zm-2-3.4V3.5h7.5L47 7.8h-7.2zM35 14.3h15.2v7.1H47v-5.6H36.7l-1.7-.7z"/><path fill="#FFF" d="M35 14.3h15.2v7.1H47v-5.6H36.7l-1.7-.7zM62.3 2.5c0-.2-.4-.4-.4-.4l-3.8-.6v.6s.7.2.8.4c0 0 .4.2 0 .4-2.3.5-4.1 2-4.1 3.7 0 2 2.5 3.8 5.6 3.8 3 0 5.6-1.7 5.6-3.8 0-1.7-1.7-3.2-4.1-3.6 0 0 .4 0 .4-.5m-2 6.3a2.2 2.2 0 110-4.4 2.2 2.2 0 010 4.4"/><path fill="#FFF" d="M62.3 2.5c0-.2-.4-.4-.4-.4l-3.8-.6v.6s.7.2.8.4c0 0 .4.2 0 .4-2.3.5-4.1 2-4.1 3.7 0 2 2.5 3.8 5.6 3.8 3 0 5.6-1.7 5.6-3.8 0-1.7-1.7-3.2-4.1-3.6 0 0 .4 0 .4-.5zm-2 6.3a2.2 2.2 0 110-4.4 2.2 2.2 0 010 4.4z"/><path fill="#FFF" d="M66 .9v.9l1.6.7v11H62v.8l2.2.7h3.4v2.4h3.3V2z"/><path fill="#FFF" d="M66 .9v.9l1.6.7v11H62v.8l2.2.7h3.4v2.4h3.3V2z"/><path fill="#FFF" d="M66.8 10c-5.1 1.9-13.4 1.3-13.4 1.3v.8l1.5.6h3V16h3.3v-3.3c3.4-.4 5.6-1 5.6-1V10z"/><path fill="#FFF" d="M66.8 10c-5.1 1.9-13.4 1.3-13.4 1.3v.8l1.5.6h3V16h3.3v-3.3c3.4-.4 5.6-1 5.6-1V10zM56.3 16v.6l1.6.9v2.1s0 1.5 1.2 1.6h12.1v-1.6h-10v-2.9l-4.9-.8z"/><path fill="#FFF" d="M56.3 16v.6l1.6.9v2.1s0 1.5 1.2 1.6h12.1v-1.6h-10v-2.9l-4.9-.8zM71.2 3.9v1l2.2.6v9.8s.2 2 1.7 1.8c0 0 1.9.4 7-1.5h.1v4h3V9.7h1.2v11.8h3V1.9L85 1v1.3l1.4.3v5.6h-1.3V2.5l-4.9-1v1l1.9.8v11s-5.1 1.2-5.6.8V5.4h5V4H71.2z"/><path fill="#FFF" d="M71.2 3.9v1l2.2.6v9.8s.2 2 1.7 1.8c0 0 1.9.4 7-1.5h.1v4h3V9.7h1.2v11.8h3V1.9L85 1v1.3l1.4.3v5.6h-1.3V2.5l-4.9-1v1l1.9.8v11s-5.1 1.2-5.6.8V5.4h5V4H71.2zM94.4 2h7v1.5h-4.9l-2-.6z"/><path fill="#FFF" d="M94.4 2h7v1.5h-4.9l-2-.6zM97.8 6c-3 0-5.6 1.7-5.6 3.8 0 2 2.5 3.8 5.6 3.8 3.2 0 5.7-1.7 5.7-3.8 0-2.1-2.5-3.8-5.7-3.8m0 6a2.3 2.3 0 110-4.5 2.3 2.3 0 010 4.5"/><path fill="#FFF" d="M97.8 6c-3 0-5.6 1.7-5.6 3.8 0 2 2.5 3.8 5.6 3.8 3.2 0 5.7-1.7 5.7-3.8 0-2.1-2.5-3.8-5.7-3.8zm0 6a2.3 2.3 0 110-4.5 2.3 2.3 0 010 4.5z"/><path fill="#FFF" d="M99.3 5.6h5V4H91v1l1.9.5h3.5s1 .3.1.7h2.8s1-.4 0-.7"/><path fill="#FFF" d="M99.3 5.6h5V4H91v1l1.9.5h3.5s1 .3.1.7h2.8s1-.4 0-.7z"/><path fill="#FFF" d="M103.5 1v.8l1.6.7v11.2h3.1v-4h3V8.2h-2.8V1.8z"/><path fill="#FFF" d="M103.5 1v.8l1.6.7v11.2h3.1v-4h3V8.2h-2.8V1.8zM92.6 14.3v1l1.9.5H105v5.6h3.1v-7.1z"/><path fill="#FFF" d="M92.6 14.3v1l1.9.5H105v5.6h3.1v-7.1zM111.2 3.7v.9l1.6.6H125v3.7s-.3 5-1.3 7.4h2.3s1.7-3.7 2.2-9.1V3.7h-17z"/><path fill="#FFF" d="M111.2 3.7v.9l1.6.6H125v3.7s-.3 5-1.3 7.4h2.3s1.7-3.7 2.2-9.1V3.7h-17z"/><path fill="#FFF" d="M113.9 8.4v1.2l1.4.5v7.8h-5.8v.9l2.4.7h18V18H123V8.8l-4.6-1.1v1.1l1.4.7V18h-1.6V9.2z"/><path fill="#FFF" d="M113.9 8.4v1.2l1.4.5v7.8h-5.8v.9l2.4.7h18V18H123V8.8l-4.6-1.1v1.1l1.4.7V18h-1.6V9.2zM32.6 24.2s-.5.2 0 .4c0 0 .8.1.8 1.2v3.7s0 1.2-.8 1.2c0 0-.3.2.1.2H35s.3-.1 0-.2c0 0-1.2.1-1.2-1.3v-4l.2-.2 2.7 5.9 2.7-5.7s.2-.4.2.1v4s0 1.2-1.2 1.2c0 0-.5.1 0 .2h2.6s.2-.1-.2-.2c0 0-.7-.1-.7-1.3v-4.2s0-.8.8-.8c0 0 .3-.2 0-.2h-1.6s-.8 2.6-2.5 5.6c0 0-1-1.9-2.6-5.6h-1.5z"/><path fill="#FFF" d="M40.8 26.5s.7-2.6 3.8-2.3c0 0 3 0 3.2 3.2 0 0 .3 3.5-3.5 3.9 0 0-3.2.3-3.6-3.1v-1.7m.8 1c-.1 1.7.8 2.4.8 2.4.7 1 2 .8 2 .8 1.1.2 2-.6 2-.6 1-1.4.5-3.4.5-3.4-.4-1.5-1.8-2-1.8-2-1.6-.3-2.6.4-2.6.4-1 .8-1 2.4-1 2.4M62.8 26.3s.7-2.5 3.8-2.2c0 0 3 0 3.1 3.2 0 0 .4 3.5-3.4 3.9 0 0-3.2.3-3.6-3.1v-1.8m.8 1c-.1 1.8.7 2.4.7 2.4.8 1 2.2.9 2.2.9 1 .2 1.8-.7 1.8-.7 1-1.4.6-3.3.6-3.3-.4-1.6-1.8-2-1.8-2-1.6-.4-2.6.4-2.6.4-1 .8-1 2.4-1 2.4"/><path fill="#FFF" d="M47.6 24.2s-.4.1 0 .3c0 0 .7 0 .7.7v4.5s0 .8-.8 1c0 0-.3.2.2.2h2.4s.3-.1 0-.2c0 0-1.2 0-1.2-1.2v-2.1s.6-.2 1.9 1.7l1.2 1.7.2.1h1s.3-.2-.3-.3l-.5-.5-1.6-2s-.7-.8-1.2-1l2-2s.3-.5.9-.6c0 0 .3-.1 0-.3h-1.8s-.2.2 0 .3c0 0 .7.2.3.7L49.3 27h-.4v-1.7s0-.7.9-.7c0 0 .3-.2 0-.2h-2.2zM60.1 31l-1.6-5.2c0-.4-.2 0-.2 0s-1.6 4.1-1.7 4.9v.2H56l-1-3.2c-.8-3-1.5-3.2-1.5-3.2-.5-.2 0-.2 0-.2h2.8c.2 0 0 .2 0 .2l-1 .1c-.3.1-.4.4-.3.6l.6 2.2.8 2.5 1.8-5.5c0-.2.4-.2.4-.2s.2 0 .5 1.1c0 0 .7 2.8 1.3 4.3l.2.3 1.2-3.9c.2-1-.1-1.2-.1-1.2-.3-.3-1-.3-1-.3-.4-.1-.1-.3-.1-.3h2c.4 0 .2.4.2.4s-1.5 3.8-1.9 5.7c0 0 0 .6-.3.6h-.5zM75 29.5v-3.8c-.1-.8-.5-1-.5-1l-1-.2c-.3 0 0-.3 0-.3H76c.5.2 0 .4 0 .4-.3 0-.4.2-.4.2-.2 0-.3.5-.3.5v5.4c0 .3-.2.2-.2.2-.4 0-.6-.5-.6-.5-2-2.9-3.6-4.8-3.6-4.8v4.1l.1.4c.2.6 1.2.5 1.2.5.3.1 0 .3 0 .3h-2.6c-.2-.2 0-.3 0-.3.8 0 .8-1 .8-1v-4c0-.5-.2-.7-.2-.7-.3-.4-.6-.3-.6-.3-.3-.3 0-.4 0-.4h1.1l.5.5a39.6 39.6 0 003.7 4.8M78.1 24.3s-.3 0 0 .2c0 0 .6 0 .6.5v3.8s-.1 2.4 2.4 2.4c0 0 2.2 0 2.2-2.4v-3.6s0-.7.6-.7c0 0 .3-.2 0-.2h-1.8s-.4 0 0 .1c0 0 .8 0 .8.7v4.2s-.2 1.5-2 1.5c0 0-1.5 0-1.5-1.6v-4s0-.6.5-.6h.7s.4-.3 0-.3H78zM91.4 24.3s-.3.1 0 .2c0 0 .5 0 .5.6v4.8s0 .8-.7.8c0 0-.4.2 0 .2h2.2s.3 0-.1-.2c0 0-.7 0-.7-.8v-4.6s0-.8.7-.8c0 0 .4-.2 0-.2h-1.9zM97.6 30.7c-.2.6-1 .4-1 .4l-1.2-3.7-1-2.4c-.2-.4-.6-.4-.6-.4-.2-.2 0-.3 0-.3h2.6c.4 0 0 .3 0 .3H96c-.8.1-.3 1.3-.3 1.3l1.6 4.6 1.8-4.9c.2-.5-.1-.8-.1-.8-.3-.3-1-.2-1-.2-.2-.2 0-.3 0-.3h2s.3 0 0 .3c0 0-1.2 2.8-2.3 6.1M100.5 24.5s.6.2.6.9V30s0 .7-.7.7c0 0-.4 0 0 .2h4.6v-1.7s-.2-.3-.3 0c0 0 .1 1.4-.8 1.4h-2v-3h.9s1 0 1 .8c0 0 .1.5.2 0v-1.8s-.1-.4-.2 0c0 0 0 .7-.8.7h-1.2v-2s0-.7.6-.7h1.5s.7 0 .7 1c0 0 .1.2.3 0v-1.4h-4.4s-.3.2 0 .3M108.3 27.5c.8.1 1.3 1.4 1.3 1.4l.6 1.3c.2.3.6.5.6.5.3 0 0 .2 0 .2h-1c-.2 0-1.2-2.3-1.2-2.3-.3-.8-.8-1-.8-1-.2-.2-.8-.1-.8-.1v2.3c0 .9.9.9.9.9.5 0 .2.3.2.3h-2.6c-.3-.2 0-.3 0-.3 1 0 .8-1 .8-1V25c0-.4-.7-.4-.7-.4-.4-.2 0-.4 0-.4h2.8c1.6 0 1.6 1.7 1.6 1.7 0 1.5-1.7 1.6-1.7 1.6m1-1.6s.1-1.3-1.4-1.3c0 0-.9 0-.9.5v2h1.2s1.1-.2 1.1-1.2M113.4 24.2s-2.2 0-2.2 1.7c0 0 0 1 1 1.4l1.9 1s.6.2.6 1c0 0 .1 1.4-1.4 1.4 0 0-1.7 0-1.7-.9v-.6s-.2-.4-.3 0v1.6l.3.1h2.2s1.6 0 1.7-1.5c0 0 0-1-1.1-1.7l-2-1s-.4-.2-.4-.9c0 0-.2-1.2 1.4-1.2 0 0 1.4-.1 1.5 1.2 0 0 .1.4.2 0v-1.4s0-.2-.2-.2h-1.5zM118.6 24.2h5.4l.1.2v1.4s-.1.2-.3 0c0 0-.2-1.3-1.2-1.3h-.9v5.1s0 1 1 1c0 0 .4.3.1.3h-2.9s-.3-.1 0-.2c0 0 1.1 0 1.1-1.2v-5h-1s-1.1 0-1.1 1.1c0 0-.2.4-.3 0v-1.4zM124.8 24.2s-.4 0 0 .4c0 0 .3-.2 2.1 3v2.2s.1.8-.8.8c0 0-.4.2 0 .3h2.6s.2-.1 0-.3c0 0-1 0-1-1v-2.1l2.1-3.3s.2-.1 0-.1h-.7l-1.6 3.2-1.4-2s-.4-.9.5-.8h.5s.4-.2 0-.3h-2.3zM89.6 29.5v-3.8c0-.8-.4-1-.4-1l-1-.2c-.3 0 0-.2 0-.2h2.5c.5 0 0 .3 0 .3-.3 0-.4.2-.4.2-.2 0-.3.5-.3.5v5.5c0 .2-.2.1-.2.1-.4-.2-.6-.6-.6-.6a47 47 0 00-3.7-4.8v4.2c0 .3.2.5.2.5.2.5 1.2.4 1.2.4.3.2 0 .3 0 .3h-2.6c-.2-.2 0-.3 0-.3.8.1.8-1 .8-1v-4c0-.5-.2-.7-.2-.7-.3-.4-.6-.3-.6-.3-.3-.2 0-.3 0-.3h1.1s.3 0 .5.4a39 39 0 003.7 4.8M116.2 24.3s-.3 0 0 .2c0 0 .5 0 .5.6v4.7s0 .8-.7.8c0 0-.4.3 0 .3h2.1s.3-.1 0-.3c0 0-.7 0-.7-.8v-4.5s0-.8.7-.8c0 0 .4-.2-.1-.2h-1.8z"/><path fill="#A62B43" d="M14.4 29.3v-1l-.6 1zM6.5 24.9a.6.6 0 00-.5-.2c-.3 0-.5.1-.7.3-.2.2-.4.4-.4.7l.1.5c.1.2.3.3.6.2.2 0 .4 0 .6-.3.3-.2.4-.4.5-.6 0-.3 0-.4-.2-.6M11.4 27.6l-.3.1-.2.4v.5s0 .2.2.2h.3l.2-.5V28c0-.2 0-.2-.2-.3M13.5 32h-.1-.2.3zM3.2 18.6c.3 0 .5 0 .7-.2.2-.1.3-.3.3-.5s0-.4-.3-.5c-.2-.2-.4-.2-.7-.2-.3 0-.5 0-.7.2a.6.6 0 000 1l.7.2"/><path fill="#A62B43" d="M26.8 1.8h-1.6l-2 2.1V.7h-2l-2.4 2.7V0h-3.2l-2.2 2.8L11 0H8.1v3.6L5.4.8H3.5V4L1.4 1.8H0v16.8C0 26.2 6 32 13.4 32c7.6 0 13.4-5.9 13.4-13.3V1.8zm-4 12.5l.2.1h.2l.6-.5-.7-.3-.1-.1-.1.1h-.1v-.5l.1.2.3.2.7.4h.8l.1-.3V14.2H23.8l-.7.4-.3.4h-.1v-.7zm2 3.6H23.2 23v.2h-.1v-.8l.1.2H24.8v-.2h.1v.8-.2zm.1-1.3l-.1-.3H23V16.9l.3.1v.1h-.5V16v-.8h.5l-.3.2V16h1.8v-.3h.1v1zM19 6l2.4-2.6v2.5l-2.5 2.8V6zm-2.5-3.5v3.3l-1.2 1.5-1.4-1.7 2.6-3zm-6.2 0L13 5.6l-1.4 1.7-1.3-1.6V2.5zm-4.6 1L8 6.1v2.6L5.6 6.2V3.5zm0 15V8.2L8 10.8v6.6s0 3.2.8 3.7l.1-5.3v-3.2h.4v3.1c0 3.4.3 5.8.4 6.6l.4.5.2-7.6v-3.9h.4v3.8c0 3 .3 7.5.5 8.4l.4.1s.2-1.8.1-8.6v-5h.4v5c.2 5.4.4 8.5.5 8.8h.4l.1-8V9h.4v5.8c0 4 .3 8 .5 9.1h.4l.1-7.9V10h.5v5c0 4.1.2 7 .4 8.7l.5-.3s.2-3.6.1-8v-4.1h.4v4c0 3.1.4 6.3.5 7.6l.3-.5.2-6.1v-3.7h.4v3c0 2.8.2 5.6.3 5.7 0 0 .6-.7.6-3.2v-7.2L21.3 8V19c-.1 4.6-4.4 7.6-7.6 7.6h-.2c-4.5 0-8-4-8-7.8v-.2zm-1.7-4.3H4V14h.1v.5l-1.5.7 1.5.8v.6l-.1-.3H2.3v.2H2V16h.1v.2H4l-1.6-.8 1.7-.8H2.3v.2H2V14h.1v.3H4zM1.5 3.9l2 2.1v2.3l-2-2V4zm1 13.2c.1-.2.4-.3.7-.3s.6.1.8.3c.2.2.3.5.3.8a1 1 0 01-.6 1h-.5c-.3 0-.6 0-.8-.3a1 1 0 01-.3-.7c0-.3.1-.6.3-.8m0 3.9v.1h-.1v-.4l1-1H2.4v.2h-.2v-.8l.1.2h1.8V19h.2v.7l-.1-.2H3.3l.7.7.2.1v-.1h.1v.5l-.3-.4-.6-.5-.8.8-.2.3zm1.2 3.3L4.8 23l-1.8.1 1.4-1.3.1-.2v-.1l.3.4h-.4l-1 1 1.8-.2L4 24l1.3-.2h.2V23.5l.4.6h-.5l-1.8.2zm2 2.4a1 1 0 01-.7-.4 1 1 0 01-.2-.8c0-.3.1-.5.4-.7.2-.2.5-.3.8-.3.2 0 .5.1.7.3.2.3.3.5.3.8 0 .3-.2.5-.4.8a1.2 1.2 0 01-1 .3M9 27h-.2l-.1.1-1 1.5-.3-2.2-.7 1v.4l-.6-.4H6.4l.2-.1.8-1.2-.1-.3.4.2.2 2 .6-1 .1-.2-.1-.1v-.1l.6.4zm1.1 2.5l-1-.4h.3l.2-.1.5-1.5h-.4v-.2h.8l-.7 1.8v.2l.4.1v.1zm1.8-.7c-.1.4-.3.7-.6.9-.2.2-.5.2-.7.1h-.2v-.1h.7l.3-.4.2-.5v-.2c0 .2-.2.3-.3.3H11a.5.5 0 01-.4-.2V28c0-.2.2-.4.4-.5h.5c.2 0 .3.1.4.4v.8m1 1c-.4.4-.9.3-.9.3 1-.3.9-.7.9-.7 0-.2 0-.4-.3-.5l-.2-.1v-1h1v.3h-.8l-.1.4.5.3c.2.1.2.3.2.5s0 .4-.3.6m2.2-.4h-.4v.5h-.3v-.6h-1v-.2l1-1.3h.3v1.3h.4v.3zm2.7-.4c0 .2-.3.3-.5.4a1 1 0 01-.6 0l-.2-.2-.2-.4-.3-1v-.1h-.3l.7-.3-.1.2v.2l.3.9c0 .3.2.4.3.5h.5c.1 0 .2 0 .3-.2v-.6l-.3-1-.1-.1H17l.6-.3v.1l-.2.1v.2l.3.9.1.4v.3zm1.4-1l.1.2h.2l-.5.4.1-.2v-.2l-.9-1.2h-.3V27l.3-.2 2 .5-.7-1-.2-.1h-.2l.5-.4h.1v.1l-.2.1.1.3 1 1.4-2.1-.6.7 1zm2-1l.1-.2-.1-.2-1-1H20l.5-.6v.5l1 1h.4l-.6.6zm1.7-1.7l-2-.4h-.3l.3-.5h.1v.1l.2.1 1.4.4-.7-1.3v-.2h-.3v.1l.3-.5v.2l.1.3 1 1.7h-.1zm1-1.6v-.3h-.2l-1.3-.6h-.2l-.1.1H22l.2-.5v-.2l.2-.3.1-.4.5.1v.1H22.6l-.2.2-.1.4.1.2.7.3.1-.3V22l.5.2H23.4l-.1.3-.2.3.8.3.1-.2.2-.4-.2-.2v-.1l.4.1-.6 1.4zm1-3.5l-1.2.4v.3l.6.1h.2l.1-.2h.1l-.1.8h-.1v-.2l-.2-.1-1.4-.2h-.2v.2h-.1v-.9l.3-.5.3-.1c.2 0 .3 0 .4.2l.1.4.2-.1.3-.2h.2l.3-.2.1-.1h.1v.4zm0-.6h-.4v-.1c.3 0 .4-.3.4-.5v-.3l-.3-.2c-.2 0-.3.1-.4.3l-.3.3-.3.4h-.3l-.4-.1a1 1 0 01-.1-.6v-.6h.6v.1l-.4.2-.1.3v.4l.4.1.4-.3.2-.2.3-.4.3-.1c.1 0 .3 0 .4.2v1.1m.3-13.5l-2 2.1V6l2-2.2v2.4z"/><path fill="#A62B43" d="M23.2 20.2H23l-.2.5v.1l1 .2v-.3a.5.5 0 00-.5-.5"/></svg>