<svg xmlns="http://www.w3.org/2000/svg" width="130" height="33"><path fill="#FFF" d="M21.5 27.3H6.6A2.6 2.6 0 014 24.7V6h20v18.7c0 1.4-1.1 2.6-2.5 2.6"/><path d="M41.8 11.2H32v.8l2.3.8h18.3v-1.6h-7.8V9.4h5.4V7.7h-.8s1-4.6 1-6h-16v.8l2.3.7v6.9h3.2v-.8h1.9v1.9zm-2-3.4V3.4h7.5l-.2 4.4h-7.2z"/><path fill="none" stroke="#000" stroke-width=".1" d="M41.8 11.2H32v.8l2.3.8h18.3v-1.6h-7.8V9.4h5.4V7.7h-.8s1-4.6 1-6h-16v.8l2.3.7v6.9h3.2v-.8h1.9v1.9zm-2-3.4V3.4h7.5l-.2 4.4h-7.2z"/><path d="M35 14.2h15.2v7.2H47v-5.6H36.7l-1.6-.8z"/><path fill="none" stroke="#000" stroke-width=".1" d="M35 14.2h15.2v7.2H47v-5.6H36.7l-1.6-.8z"/><path d="M62.4 2.5c0-.3-.4-.5-.4-.5L58 1.4V2s.7.2.9.4c0 0 .4.2 0 .5-2.4.4-4.2 1.9-4.2 3.6 0 2.1 2.5 3.8 5.6 3.8 3.1 0 5.6-1.7 5.6-3.8 0-1.7-1.7-3.2-4-3.6 0 0 .3 0 .4-.4m-2 6.2a2.2 2.2 0 110-4.4 2.2 2.2 0 010 4.4"/><path fill="none" stroke="#000" stroke-width=".1" d="M62.4 2.5c0-.3-.4-.5-.4-.5L58 1.4V2s.7.2.9.4c0 0 .4.2 0 .5-2.4.4-4.2 1.9-4.2 3.6 0 2.1 2.5 3.8 5.6 3.8 3.1 0 5.6-1.7 5.6-3.8 0-1.7-1.7-3.2-4-3.6 0 0 .3 0 .4-.4zm-2 6.2a2.2 2.2 0 110-4.4 2.2 2.2 0 010 4.4z"/><path d="M66 .8v1l1.7.6v11H62v.9l2.1.7h3.4v2.4h3.3V1.8z"/><path fill="none" stroke="#000" stroke-width=".1" d="M66 .8v1l1.7.6v11H62v.9l2.1.7h3.4v2.4h3.3V1.8z"/><path d="M66.9 10c-5.2 1.8-13.4 1.2-13.4 1.2v.8l1.5.6h3v3.2h3.2v-3.3c3.4-.3 5.7-1 5.7-1V10z"/><path fill="none" stroke="#000" stroke-width=".1" d="M66.9 10c-5.2 1.8-13.4 1.2-13.4 1.2v.8l1.5.6h3v3.2h3.2v-3.3c3.4-.3 5.7-1 5.7-1V10z"/><path d="M56.4 15.9v.6l1.6 1v2s0 1.5 1.2 1.7h12v-1.6h-10v-3l-4.8-.7z"/><path fill="none" stroke="#000" stroke-width=".1" d="M56.4 15.9v.6l1.6 1v2s0 1.5 1.2 1.7h12v-1.6h-10v-3l-4.8-.7z"/><path d="M71.3 3.8v1l2.1.6v9.9s.2 1.9 1.8 1.8c0 0 1.8.4 7-1.5h.1v4h2.9v-10h1.3v11.8h3V1.8l-4.3-1v1.3l1.3.4V8h-1.3V2.5l-4.8-1v.9l1.8.8v11s-5 1.3-5.5.9V5.3h5V3.8H71.3z"/><path fill="none" stroke="#000" stroke-width=".1" d="M71.3 3.8v1l2.1.6v9.9s.2 1.9 1.8 1.8c0 0 1.8.4 7-1.5h.1v4h2.9v-10h1.3v11.8h3V1.8l-4.3-1v1.3l1.3.4V8h-1.3V2.5l-4.8-1v.9l1.8.8v11s-5 1.3-5.5.9V5.3h5V3.8H71.3z"/><path d="M94.5 2h6.9v1.4h-4.8l-2-.6z"/><path fill="none" stroke="#000" stroke-width=".1" d="M94.5 2h6.9v1.4h-4.8l-2-.6z"/><path d="M98 6c-3.2 0-5.7 1.6-5.7 3.7s2.5 3.8 5.6 3.8c3.2 0 5.7-1.7 5.7-3.8 0-2-2.5-3.8-5.7-3.8m0 6a2.3 2.3 0 110-4.4 2.3 2.3 0 010 4.5"/><path fill="none" stroke="#000" stroke-width=".1" d="M98 6c-3.2 0-5.7 1.6-5.7 3.7s2.5 3.8 5.6 3.8c3.2 0 5.7-1.7 5.7-3.8 0-2-2.5-3.8-5.7-3.8zm0 6a2.3 2.3 0 110-4.5 2.3 2.3 0 010 4.5z"/><path d="M99.4 5.5h5V4H91v1l2 .5h3.5s1 .3 0 .8h2.9s.9-.4 0-.8"/><path fill="none" stroke="#000" stroke-width=".1" d="M99.4 5.5h5V4H91v1l2 .5h3.5s1 .3 0 .8h2.9s.9-.4 0-.8z"/><path d="M103.6.8v1l1.6.6v11.2h3.1V9.7h3V8h-2.8V1.7z"/><path fill="none" stroke="#000" stroke-width=".1" d="M103.6.8v1l1.6.6v11.2h3.1V9.7h3V8h-2.8V1.7z"/><path d="M92.6 14.2v1l2 .5H105v5.7h3.1v-7.2z"/><path fill="none" stroke="#000" stroke-width=".1" d="M92.6 14.2v1l2 .5H105v5.7h3.1v-7.2z"/><path d="M111.3 3.7v.8l1.6.6h12.2V9s-.3 4.9-1.2 7.3h2.2s1.8-3.6 2.2-9V3.6h-17z"/><path fill="none" stroke="#000" stroke-width=".1" d="M111.3 3.7v.8l1.6.6h12.2V9s-.3 4.9-1.2 7.3h2.2s1.8-3.6 2.2-9V3.6h-17z"/><path d="M114 8.4v1.2l1.5.4V18h-5.9v.8l2.4.8h18V18h-6.7V8.7l-4.7-1v1l1.5.7V18h-1.6V9.2z"/><path fill="none" stroke="#000" stroke-width=".1" d="M114 8.4v1.2l1.5.4V18h-5.9v.8l2.4.8h18V18h-6.7V8.7l-4.7-1v1l1.5.7V18h-1.6V9.2z"/><path d="M32.6 24.2s-.5.2 0 .3c0 0 .8.2.8 1.2v3.7s0 1.2-.8 1.2c0 0-.3.3.1.3H35s.2-.2 0-.2c0 0-1.3 0-1.3-1.3v-4.1l.2-.1 2.7 5.9 2.7-5.8s.2-.3.2.2v4s0 1.1-1.1 1.1c0 0-.5.2-.2.3H41s.2-.2-.1-.3c0 0-.8 0-.8-1.2v-4.2s0-.8.8-.8c0 0 .3-.2 0-.2h-1.6s-.8 2.6-2.5 5.5c0 0-1-1.8-2.5-5.5h-1.6z"/><path d="M40.8 26.4s.7-2.5 3.9-2.3c0 0 3 0 3 3.3 0 0 .4 3.5-3.3 3.9 0 0-3.2.3-3.7-3.1 0 0-.1-.9.1-1.8m.7 1c-.1 1.8.8 2.4.8 2.4.7 1 2.1.9 2.1.9 1 .2 1.9-.7 1.9-.7 1-1.4.5-3.4.5-3.4-.4-1.5-1.8-1.9-1.8-1.9-1.6-.4-2.6.4-2.6.4-1 .7-1 2.4-1 2.4M62.8 26.3s.7-2.5 3.9-2.3c0 0 3 0 3.1 3.3 0 0 .3 3.5-3.4 3.8 0 0-3.2.3-3.7-3l.1-1.8m.7 1c0 1.7.8 2.4.8 2.4.7 1 2.1.8 2.1.8 1 .2 1.9-.6 1.9-.6 1-1.4.5-3.4.5-3.4-.4-1.5-1.8-2-1.8-2-1.6-.3-2.6.4-2.6.4-1 .8-.9 2.5-.9 2.5"/><path d="M47.6 24.2s-.3 0 0 .3c0 0 .7 0 .8.7v4.5s0 .8-.8 1c0 0-.4.2.2.2h2.4s.3-.2-.1-.3c0 0-1.2 0-1.2-1.2v-2s.6-.2 2 1.7l1.2 1.7H53.3s.3-.1-.3-.3c0 0-.3 0-.6-.5l-1.6-2s-.7-.8-1.2-1l2-2s.3-.5.9-.6c0 0 .4 0 0-.2h-1.8s-.2.1 0 .3c0 0 .7.1.3.7l-1.7 1.7s-.2-.1-.4 0v-1.7s0-.8 1-.8c0 0 .2-.2-.1-.2h-2.2zM60.2 30.9l-1.6-5.2c0-.3-.3 0-.3 0s-1.6 4.2-1.6 5l-.1.2H56l-.1-.1-.9-3.2c-.8-3-1.5-3.1-1.5-3.1-.6-.2 0-.3 0-.3h2.7c.3.1 0 .3 0 .3h-1c-.2.2-.4.5-.3.7l.6 2.2.8 2.5 1.9-5.5c0-.3.3-.3.3-.3s.2 0 .5 1.2c0 0 .7 2.8 1.4 4.3l.1.3 1.2-4c.3-.9 0-1.2 0-1.2-.3-.2-1.1-.3-1.1-.3-.4 0 0-.2 0-.2h2c.3 0 .1.3.1.3s-1.5 3.9-1.8 5.7c0 0-.1.6-.3.7h-.5zM75 29.5v-3.8c0-.8-.5-1-.5-1-.3-.2-.9-.2-.9-.2-.3-.1 0-.3 0-.3h2.5c.5.1 0 .3 0 .3l-.4.2c-.3.1-.3.6-.3.6v5.4c0 .3-.2.2-.2.2-.4 0-.6-.5-.6-.5-2-3-3.7-4.8-3.7-4.8v4c0 .4.2.5.2.5.2.6 1.2.5 1.2.5.2.1 0 .3 0 .3h-2.6c-.3-.2 0-.3 0-.3.8 0 .8-1 .8-1v-4.1c0-.5-.2-.7-.2-.7-.3-.3-.7-.3-.7-.3-.2-.2 0-.3 0-.3h1.2s.3.1.4.5c0 0 .9 1.4 3.3 4.4 0 0 .4.6.5.4M78.2 24.2s-.4.1 0 .3c0 0 .5 0 .5.4v3.9s0 2.3 2.4 2.3c0 0 2.3 0 2.3-2.3V25s0-.6.6-.6c0 0 .3-.2 0-.3H82s-.3 0 0 .2c0 0 .9 0 .9.7v4.2s-.2 1.5-2 1.5c0 0-1.6-.1-1.6-1.6v-4s0-.6.5-.6c0 0 .4-.2.8-.1 0 0 .4-.3 0-.3h-2.5zM91.5 24.2s-.3.2 0 .3c0 0 .5 0 .5.6v4.7s0 .8-.7.8c0 0-.4.3 0 .3h2.1s.3-.1 0-.3c0 0-.7 0-.7-.8v-4.5s0-.8.7-.8c0 0 .4-.2 0-.3h-1.9zM97.7 30.7c-.2.6-1 .3-1 .3l-1.3-3.6-1-2.4c-.2-.5-.5-.5-.5-.5-.3-.1 0-.3 0-.3h2.6c.4.1 0 .3 0 .3H96c-.8.2-.3 1.3-.3 1.3l1.7 4.7 1.8-5c.2-.4-.1-.7-.1-.7-.4-.4-1-.3-1-.3-.2-.1 0-.3 0-.3h2s.3 0 0 .4c0 0-1.2 2.7-2.3 6.1M100.6 24.5s.6.1.6.8V30s0 .7-.7.7c0 0-.4.1 0 .3h4.6v-1.7s-.3-.3-.3 0c0 0 .1 1.3-.8 1.3h-2.1v-3h1s1 0 1 .9c0 0 .1.5.2 0v-1.9s-.1-.4-.2 0c0 0 0 .8-.8.8H102v-2.1s0-.6.6-.6h1.5s.7 0 .7 1c0 0 .1.2.3 0v-1.4h-4.4s-.3.1 0 .3M108.4 27.4c.8.2 1.3 1.5 1.3 1.5l.6 1.3c.2.3.6.4.6.4.3.1 0 .3 0 .3h-1c-.2 0-1.2-2.4-1.2-2.4-.3-.7-.8-1-.8-1-.2-.1-.8 0-.8 0v2.2c0 1 .9 1 .9 1 .5 0 .2.2.2.2h-2.6c-.3-.2 0-.3 0-.3 1 0 .8-.8.8-.8v-4.9c0-.4-.7-.3-.7-.3-.4-.3 0-.4 0-.4h2.8c1.6 0 1.6 1.6 1.6 1.6 0 1.5-1.7 1.6-1.7 1.6m1-1.5s.1-1.3-1.4-1.3c0 0-.9-.1-.9.4v2.1h1.2s1.1-.2 1.1-1.2M113.5 24.2s-2.2 0-2.2 1.7c0 0 0 .9 1 1.4l1.9.9s.6.2.6 1.1c0 0 .1 1.4-1.4 1.3 0 0-1.7.2-1.7-.8v-.6s-.2-.4-.3 0v1.6l.3.1h2.2s1.6 0 1.7-1.5c0 0 .1-1.1-1.1-1.8l-2-1s-.4-.2-.4-.8c0 0-.2-1.2 1.4-1.2 0 0 1.4-.2 1.5 1.2 0 0 .1.3.2 0v-1.5l-.2-.1h-1.5zM118.7 24.2h5.4l.1.2v1.3s-.1.3-.2 0c0 0-.3-1.2-1.2-1.2h-1v5s0 1.1 1 1.1c0 0 .4.3.1.3H120s-.3-.2.1-.3c0 0 1 .1 1-1.1v-5h-1s-1 0-1.1 1.1c0 0-.2.3-.3 0v-1.4zM124.9 24.2s-.4 0 0 .3c0 0 .3-.1 2.2 3v2.2s0 .9-1 .9c0 0-.3.1 0 .2h2.7s.3 0 0-.2c0 0-1 0-1-1v-2.2l2.1-3.2s.2-.2 0-.2h-.7l-1.6 3.3-1.3-2s-.5-.9.4-.9h.5s.4-.1 0-.2H125zM89.7 29.5v-3.8c0-.8-.5-1-.5-1-.3-.2-.9-.2-.9-.2-.3-.1 0-.3 0-.3h2.5c.5.1 0 .3 0 .3l-.4.2c-.3.1-.3.6-.3.6v5.4c0 .3-.2.2-.2.2-.5-.2-.6-.6-.6-.6-2.1-3-3.7-4.8-3.7-4.8v4.2c0 .3.2.4.2.4.2.6 1.2.5 1.2.5.2.1 0 .3 0 .3h-2.6c-.3-.2 0-.3 0-.3.8 0 .8-1 .8-1v-4c0-.6-.2-.8-.2-.8-.3-.3-.6-.3-.6-.3-.3-.2 0-.3 0-.3h1.1s.3.1.4.5a39.2 39.2 0 003.8 4.8M116.3 24.2s-.3.2 0 .3c0 0 .5 0 .5.6v4.7s0 .8-.7.8c0 0-.4.2 0 .3h2.1s.3-.2 0-.3c0 0-.7 0-.7-.8v-4.6s0-.7.7-.7c0 0 .4-.2-.1-.3h-1.8z"/><path fill="#A62B43" d="M14.4 29.3v-1l-.7 1zM6.5 24.9a.6.6 0 00-.6-.2c-.2 0-.4 0-.6.3-.3.2-.4.4-.4.6v.6c.2.2.4.2.6.2.3 0 .5-.1.7-.3.2-.2.4-.4.4-.7V25M11.4 27.6H11l-.2.5v.4c0 .1 0 .2.2.3l.3-.1.2-.4v-.5l-.2-.2M13.5 32h-.1-.2.3zM3.2 18.6l.7-.2a.6.6 0 000-1c-.2-.2-.4-.3-.7-.3-.3 0-.6 0-.7.2a.6.6 0 000 1c.1.2.4.3.7.3"/><path fill="#A62B43" d="M26.8 1.7h-1.6l-2 2.1V.7h-2l-2.4 2.7V-.1h-3.2l-2.2 2.8L11-.1H8v3.6L5.5.7H3.5v3.2L1.3 1.7H0v16.8C0 26.2 6 32 13.4 32c7.6 0 13.4-6 13.4-13.3v-17zm-4 12.5l.2.2.2-.1.6-.4-.6-.4H22.9V13v.2l.3.2.7.4H24.8v-.3.7H23.9l-.7.4-.3.3v-.7zm2 3.6H23.2 23v.2h-.1v-.8l.1.2H24.8v-.2h.1v.8-.2zm.1-1.2v-.3H23v.5l.3.2h-.5V16v-.7h.5l-.3.2v.5h1.8v-.2h.1v.9zM19 6l2.4-2.7v2.6l-2.5 2.7V6zm-2.5-3.5v3.3l-1.2 1.4-1.4-1.6 2.6-3.1zm-6.2 0l2.7 3-1.4 1.7-1.3-1.6V2.4zm-4.7 1L8.1 6v2.7L5.5 6V3.4zm0 15V8l2.6 2.6v6.6s0 3.3.8 3.8l.1-5.4v-3.2h.4v3.1c0 3.5.3 5.8.4 6.7l.4.4s.2-3.7.2-7.5v-4h.4V15c0 3.1.3 7.6.5 8.4l.3.2s.3-1.9.2-8.6V9.9h.4v5c.1 5.5.4 8.6.5 8.9h.4l.1-8V9h.4v5.7c0 4 .3 8 .5 9.2l.4-.1.1-7.8V9.9h.4v5c.1 4 .3 7 .5 8.6l.5-.2s.2-3.6.1-8V11h.4v4c0 3.1.3 6.4.5 7.6l.3-.4.2-6.2v-3.6h.4v3c0 2.7.2 5.5.3 5.7 0 0 .6-.8.6-3.2v-7.2L21.3 8v10.9c-.1 4.5-4.4 7.6-7.6 7.6h-.2c-4.5 0-8-4-8-7.9v-.1zM3.8 14h.3v-.2.5l-1.4.8 1.5.8v.5H4v-.2H2.1v.2-.7.3h1.6l-1.5-.8 1.7-.9H2.2v.3-.8.2h1.6zM1.4 3.8L3.5 6v2.3l-2-2V3.8zm1 13.3c.2-.2.5-.3.8-.3.3 0 .6 0 .8.3.2.2.3.4.3.7 0 .3 0 .5-.2.7a1.2 1.2 0 01-.9.4c-.3 0-.6-.1-.8-.3a1 1 0 01-.3-.8c0-.3 0-.5.3-.7m0 3.8v.2h-.1v-.4l1-1.1h-1v.3l-.1-.8.1.2H4l.2-.1V19h.1v.8-.2H3.2l.7.6.2.2v-.2h.1v.6l-.3-.4-.6-.6-.8.9-.2.2zm1.2 3.4v-.1L4.7 23 3 23l1.3-1.3.2-.2v-.2l.3.5h-.1l-.2-.1h-.1l-1 1 1.8-.1L4 24l1.4-.2h.2V23.4l.4.6h-.5l-1.8.2zm2 2.3a1 1 0 01-.7-.3 1 1 0 01-.2-.8c0-.3.1-.5.3-.8l.8-.3c.3 0 .6.2.8.4.2.2.3.5.2.8 0 .3-.1.5-.4.7a1.2 1.2 0 01-.8.3M9 27h-.4l-1 1.5-.2-2.2-.7 1-.1.3.1.1v.1l-.6-.4H6.5l.1-.1.9-1.2-.1-.3v-.1l.3.2.2 2 .7-1 .1-.1-.1-.2.6.3v.1H9zm1.1 2.5l-1-.4V29h.5l.5-1.5-.4-.1v-.1h.8L9.8 29v.2l.3.2zm1.7-.7c0 .4-.2.6-.5.8-.2.2-.5.3-.8.2h-.1v-.2h.7l.3-.4.2-.4v-.2l-.3.3H11a.5.5 0 01-.3-.3v-.5c0-.2.2-.4.4-.5.1-.1.3-.2.5-.1.2 0 .3.2.4.4v.9m1 1c-.4.3-.9.3-.9.3V30c1-.2.9-.6.9-.6 0-.2-.1-.4-.3-.5-.1-.2-.1-.2-.3-.2l.1-.9h1v.2h-.9v.5l.5.2.2.6c0 .1-.1.4-.3.5m2.1-.4h-.3v.6h-.3v-.6h-1V29l1-1.2h.3v1.3h.4v.2zm2.8-.3c-.1.1-.3.3-.5.3h-.6l-.2-.1-.2-.5-.3-.8-.1-.2h-.2v-.1l.7-.2-.1.1v.3l.3.9c0 .2.1.4.3.5h.5l.3-.2v-.6l-.3-1-.1-.2H17l.6-.2-.2.2v.2l.3.8v.8zm1.4-1l.1.2h.2l-.5.4v-.1l.1-.2v-.2l-.9-1.2h-.3l.3-.3 2 .6-.7-1-.2-.2-.2.1.5-.4v.4l1 1.5-2.1-.6.7 1zm2-1l.1-.2-.1-.2-1-1-.1-.1h-.2l.5-.5v.4l1 1 .2.1h.2l-.6.5zm1.7-1.7l-2-.4h-.3l.3-.6h.1v.2l.2.1 1.4.3-.7-1.3v-.1h-.3l.3-.4v.2l.1.2 1 1.7h-.1zm1-1.6V23.4l-.2-.1-1.3-.5H22.1v.1H22l.2-.5v-.3l.2-.3.1-.4.5.2h-.3l-.2.2-.1.5.1.2.7.3.1-.4v-.4l.5.1v.1H23.4l-.1.3-.1.3.7.3.1-.3.2-.4-.2-.2.4.1-.6 1.4zm1-3.6l-1.2.5v.3h.8l.1-.1h.1l-.1.8h-.1v-.3h-.2l-1.4-.3h-.2v.2h-.2l.2-.8c0-.3 0-.5.2-.6h.3l.4.1.1.5.2-.2.3-.1.2-.1c.2 0 .3-.1.3-.2h.1v-.1h.1v.4zm0-.6h-.4c.3-.1.4-.3.4-.6v-.3l-.3-.1c-.2 0-.3 0-.4.3l-.3.3c0 .2-.2.3-.3.4h-.3c-.1 0-.3 0-.4-.2a1 1 0 01-.1-.6v-.5h.6l-.4.2-.1.4v.3l.4.2c.1 0 .3-.1.4-.4l.2-.2.3-.4h.3l.4.1v1.1m.3-13.5l-2 2.1V6l2-2.1V6z"/><path fill="#A62B43" d="M23.2 20.2H23l-.2.5 1 .2v-.3c0-.1 0-.2-.2-.3l-.3-.1"/></svg>